<?xml version="1.0" encoding="iso-8859-1"?>
<svg version="1.1" id="Capa_1" xmlns="http://www.w3.org/2000/svg" xmlns:xlink="http://www.w3.org/1999/xlink" x="0px" y="0px"
	 viewBox="0 0 489.018 489.018" style="enable-background:new 0 0 489.018 489.018;" xml:space="preserve">
<g>
	<g>
		<path d="M489,362.809c0-36.5-22.9-69.9-57.3-84.4c-4.2-51.1-48-91.7-101.1-91.7c-14.6,0-28.1,3.1-40.7,8.3
			c-7.5-11.7-16.4-22.7-27.1-32v-109.8c0-11.5-9.4-20.9-20.9-20.9h-221c-11.5,0-20.9,9.4-20.9,20.9v382.6c0,11.5,9.4,20.9,20.9,20.9
			h376.4C448.3,456.709,490,416.009,489,362.809z M221,416.009H40.7v-159.5h180.4v159.5H221z M221,214.809H40.7v-140.8h180.4v140.8
			H221z M397.2,415.009H262.7v-185.8c1.1,13,19.8,20.7,32.3,10.6c10.4-8.4,22.9-12.5,36.5-12.5c33.4,0,60.5,27.1,60.5,59.4
			c0,2.1-4.8,22.3,15.6,27.1c23.9,5.6,41.7,26.1,41.7,50C449.4,392.009,426.4,415.009,397.2,415.009z"/>
		<path d="M117.8,323.209h16.7c11.5,0,20.9-9.4,20.9-20.9s-9.4-20.8-20.9-20.8h-16.7c-11.5,0-20.9,9.4-20.9,20.9
			S106.4,323.209,117.8,323.209z"/>
		<path d="M117.8,393.109h16.7c11.5,0,20.9-9.4,20.9-20.9s-9.4-20.9-20.9-20.9h-16.7c-11.5,0-20.9,9.4-20.9,20.9
			C97,383.709,106.4,393.109,117.8,393.109z"/>
	</g>
</g>
<g>
</g>
<g>
</g>
<g>
</g>
<g>
</g>
<g>
</g>
<g>
</g>
<g>
</g>
<g>
</g>
<g>
</g>
<g>
</g>
<g>
</g>
<g>
</g>
<g>
</g>
<g>
</g>
<g>
</g>
</svg>
